<svg width="40" height="40" viewBox="0 0 40 40" fill="none" xmlns="http://www.w3.org/2000/svg">
<path d="M12.3498 39.95C11.3498 39.95 10.4998 39.6 9.7998 38.9C9.0998 38.2 8.7498 37.35 8.7498 36.35C8.7498 35.35 9.0998 34.5 9.7998 33.8C10.4998 33.1 11.3498 32.75 12.3498 32.75C13.3498 32.75 14.1998 33.1 14.8998 33.8C15.5998 34.5 15.9498 35.35 15.9498 36.35C15.9498 37.35 15.5998 38.2 14.8998 38.9C14.1998 39.6 13.3498 39.95 12.3498 39.95ZM32.3498 39.95C31.3498 39.95 30.4998 39.6 29.7998 38.9C29.0998 38.2 28.7498 37.35 28.7498 36.35C28.7498 35.35 29.0998 34.5 29.7998 33.8C30.4998 33.1 31.3498 32.75 32.3498 32.75C33.3498 32.75 34.1998 33.1 34.8998 33.8C35.5998 34.5 35.9498 35.35 35.9498 36.35C35.9498 37.35 35.5998 38.2 34.8998 38.9C34.1998 39.6 33.3498 39.95 32.3498 39.95ZM9.7498 6.95L15.2498 18.35H29.6498L35.8998 6.95H9.7498ZM8.2498 3.95H37.6998C38.4665 3.95 39.0498 4.3 39.4498 5C39.8498 5.7 39.8498 6.4 39.4498 7.1L32.6998 19.25C32.3331 19.8833 31.8581 20.3917 31.2748 20.775C30.6915 21.1583 30.0498 21.35 29.3498 21.35H14.1998L11.3998 26.55H35.9498V29.55H11.8498C10.4498 29.55 9.44147 29.0833 8.8248 28.15C8.20814 27.2167 8.21647 26.1667 8.8498 25L12.0498 19.1L4.4498 3H0.549805V0H6.3998L8.2498 3.95Z" fill="white"/>
</svg>
